<svg width="146" height="42" viewBox="0 0 146 42" fill="none" xmlns="http://www.w3.org/2000/svg">
<g id="footerLogo">
<g id="Icon">
<rect id="BG" width="42" height="42" rx="12" fill="#006EFD"/>
<g id="Icon_2">
<path id="Vector" d="M22.5964 7H19.7915L18.3903 9.45776L19.7915 11.9155H22.5964L23.9976 9.45776L22.5964 7Z" fill="white"/>
<path id="Vector_2" d="M17.3354 10.0359H14.5329L13.1292 12.4936L14.5329 14.9514H17.3354L18.7391 12.4936L17.3354 10.0359Z" fill="white"/>
<path id="Vector_3" d="M12.2061 13.1152H9.40122L8 15.573L9.40122 18.0307H12.2061L13.6074 15.573L12.2061 13.1152Z" fill="white"/>
<path id="Vector_4" d="M27.5308 10.5432H25.2062L24.0426 12.5826L25.2062 14.6194H27.5308L28.6944 12.5826L27.5308 10.5432Z" fill="white"/>
<path id="Vector_5" d="M22.4011 13.5339H20.0765L18.9129 15.5733L20.0765 17.6127H22.4011L23.5647 15.5733L22.4011 13.5339Z" fill="white"/>
<path id="Vector_6" d="M17.1401 16.5701H14.8154L13.6519 18.6094L14.8154 20.6463H17.1401L18.3036 18.6094L17.1401 16.5701Z" fill="white"/>
<path id="Vector_7" d="M11.9668 19.6067H9.64214L8.47858 21.6435L9.64214 23.6829H11.9668L13.1303 21.6435L11.9668 19.6067Z" fill="white"/>
<path id="Vector_8" d="M11.8791 25.6777H9.5545L8.39094 27.7171L9.5545 29.754H11.8791L13.0427 27.7171L11.8791 25.6777Z" fill="white"/>
<path id="Vector_9" d="M17.185 22.686H14.8579L13.6968 24.7254L14.8579 26.7623H17.185L18.3486 24.7254L17.185 22.686Z" fill="white"/>
<path id="Vector_10" d="M22.3577 19.6941H20.0306L18.867 21.7309L20.0306 23.7703H22.3577L23.5188 21.7309L22.3577 19.6941Z" fill="white"/>
<path id="Vector_11" d="M27.6164 16.5701H25.2918L24.1282 18.6094L25.2918 20.6463H27.6164L28.78 18.6094L27.6164 16.5701Z" fill="white"/>
<path id="Vector_12" d="M32.8362 13.5791H30.5091L29.348 15.616L30.5091 17.6553H32.8362L33.9997 15.616L32.8362 13.5791Z" fill="white"/>
<path id="Vector_13" d="M32.6183 19.9998H30.6402L29.65 21.731L30.6402 23.4647H32.6183L33.6061 21.731L32.6183 19.9998Z" fill="white"/>
<path id="Vector_14" d="M27.4008 22.9033H25.4227L24.4324 24.637L25.4227 26.3707H27.4008L28.3885 24.637L27.4008 22.9033Z" fill="white"/>
<path id="Vector_15" d="M22.2277 26.1155H20.2497L19.2594 27.8467L20.2497 29.5804H22.2277L23.2155 27.8467L22.2277 26.1155Z" fill="white"/>
<path id="Vector_16" d="M16.9662 29.062H14.9881L13.9979 30.7957L14.9881 32.5294H16.9662L17.954 30.7957L16.9662 29.062Z" fill="white"/>
<path id="Vector_17" d="M21.7923 32.7524H20.5099L19.8687 33.8748L20.5099 34.9997H21.7923L22.4335 33.8748L21.7923 32.7524Z" fill="white"/>
<path id="Vector_18" d="M27.0972 29.7607H25.8148L25.1737 30.8831L25.8148 32.008H27.0972L27.7384 30.8831L27.0972 29.7607Z" fill="white"/>
<path id="Vector_19" d="M32.3138 26.6797H31.0314L30.3902 27.8046L31.0314 28.9295H32.3138L32.955 27.8046L32.3138 26.6797Z" fill="white"/>
</g>
</g>
<g id="Turing IT Labs">
<g id="turing">
<path id="Vector_20" d="M48.0032 14.5169H50.9352L51.5836 9.59155L55.4706 9.6941V14.5169H59.6962V18.4842H55.4706V25.0855C55.4706 25.8162 55.6399 26.3609 55.9817 26.7262C56.3234 27.0916 56.7642 27.2742 57.3103 27.2742H59.6611L59.8304 31.2767C59.1948 31.3921 58.5911 31.469 58.0226 31.517C57.4541 31.5619 56.9079 31.5843 56.3873 31.5843C55.4323 31.5843 54.6019 31.4305 53.8992 31.1229C53.1933 30.8152 52.6089 30.3987 52.1425 29.8731C51.6762 29.3476 51.3249 28.7227 51.0853 27.992C50.8458 27.2614 50.7276 26.4859 50.7276 25.6655V18.4842H48V14.5169H48.0032Z" fill="white"/>
<path id="Vector_21" d="M74.3499 14.5176H79.0865V31.3767H75.9852L75.2346 29.4283C74.7811 30.0212 74.12 30.5499 73.2576 31.0178C72.392 31.4856 71.3955 31.7196 70.2585 31.7196C67.962 31.7196 66.2373 31.0242 65.0779 29.6334C63.9185 28.2426 63.3404 26.384 63.3404 24.0575V14.5176H68.1122V23.7851C68.1122 24.9484 68.3549 25.8264 68.8436 26.4193C69.3322 27.0121 70.1211 27.3069 71.2135 27.3069C72.1461 27.3069 72.9063 27.0153 73.4971 26.4353C74.088 25.8553 74.3723 25.0285 74.3499 23.955V14.5176Z" fill="white"/>
<path id="Vector_22" d="M88.5625 31.3765H83.7908V14.4469H86.3459L87.6427 16.7029C88.1665 15.905 88.8308 15.2897 89.6357 14.8571C90.4406 14.4245 91.3668 14.2065 92.4144 14.2065C93.2321 14.2065 94.0274 14.3507 94.8003 14.6327C95.5732 14.918 96.2887 15.3217 96.9466 15.8473L94.7652 19.5421C94.3787 19.2473 93.9763 19.0166 93.5547 18.8595C93.1331 18.6993 92.6636 18.6192 92.1397 18.6192C91.255 18.6192 90.4757 18.9044 89.805 19.4748C89.1342 20.0452 88.719 20.7855 88.5593 21.6988V31.3765H88.5625Z" fill="white"/>
<path id="Vector_23" d="M99.1965 8.77193C99.1965 7.99643 99.468 7.3427 100.014 6.80434C100.56 6.26918 101.209 6 101.956 6C102.703 6 103.387 6.26918 103.933 6.80434C104.479 7.3395 104.751 7.99643 104.751 8.77193C104.751 9.54743 104.479 10.2076 103.933 10.7555C103.387 11.3035 102.729 11.5759 101.956 11.5759C101.183 11.5759 100.557 11.3035 100.014 10.7555C99.468 10.2076 99.1965 9.54743 99.1965 8.77193ZM104.342 31.3768H99.5702V14.5177H104.342V31.3768Z" fill="white"/>
<path id="Vector_24" d="M113.821 31.3767H109.049V14.4471H111.604L112.968 16.6358C113.514 15.9276 114.236 15.3476 115.133 14.8925C116.031 14.4375 117.015 14.21 118.081 14.21C119.148 14.21 120.042 14.3798 120.892 14.7227C121.745 15.0656 122.489 15.5623 123.125 16.2096C123.76 16.8601 124.255 17.658 124.607 18.6034C124.958 19.5487 125.134 20.6287 125.134 21.8336V31.3735H120.464V22.1412C120.464 21.1158 120.202 20.2762 119.681 19.6288C119.158 18.9783 118.362 18.6547 117.296 18.6547C116.523 18.6547 115.823 18.8726 115.2 19.3052C114.574 19.7378 114.114 20.2858 113.821 20.9459V31.3767Z" fill="white"/>
<path id="Vector_25" d="M137.032 39.9937C135.396 39.9937 133.917 39.6508 132.602 38.9683C131.282 38.2857 130.225 37.3724 129.433 36.2316L132.841 33.7C133.295 34.3601 133.879 34.8793 134.598 35.2574C135.313 35.6323 136.102 35.8214 136.968 35.8214C138.216 35.8214 139.245 35.4625 140.053 34.7447C140.858 34.0269 141.263 32.9822 141.263 31.617V29.4956C140.673 30.1558 139.967 30.6717 139.149 31.0338C138.331 31.3959 137.456 31.5818 136.524 31.5818C135.431 31.5818 134.406 31.3671 133.438 30.9313C132.471 30.4987 131.637 29.8994 130.934 29.1367C130.228 28.374 129.673 27.4672 129.264 26.4193C128.855 25.3714 128.651 24.2178 128.651 22.9648C128.651 21.7118 128.849 20.6158 129.248 19.5455C129.644 18.4752 130.209 17.5459 130.934 16.7576C131.662 15.9725 132.531 15.3508 133.541 14.8925C134.553 14.4375 135.684 14.21 136.932 14.21C138.022 14.21 139.034 14.4311 139.967 14.8765C140.899 15.3219 141.672 15.8731 142.286 16.5365L143.445 14.4503H146V31.4825C146 32.7835 145.789 33.9564 145.368 35.0042C144.946 36.0521 144.352 36.9462 143.579 37.6897C142.806 38.4299 141.864 39.0003 140.749 39.4009C139.635 39.7982 138.399 40.0001 137.035 40.0001L137.032 39.9937ZM133.349 22.8943C133.349 23.5095 133.438 24.08 133.62 24.6055C133.802 25.131 134.068 25.5925 134.422 25.9899C134.773 26.3904 135.201 26.7013 135.7 26.9288C136.198 27.1563 136.757 27.2717 137.37 27.2717C137.939 27.2717 138.466 27.1563 138.954 26.9288C139.443 26.7013 139.861 26.3872 140.216 25.9899C140.567 25.5925 140.842 25.1246 141.034 24.5863C141.225 24.0511 141.324 23.4647 141.324 22.8238C141.324 22.2309 141.228 21.6733 141.034 21.1478C140.842 20.6223 140.567 20.1608 140.216 19.7634C139.865 19.3661 139.443 19.052 138.954 18.8245C138.466 18.597 137.926 18.4816 137.335 18.4816C136.744 18.4816 136.169 18.597 135.68 18.8245C135.192 19.052 134.77 19.3661 134.419 19.7634C134.068 20.164 133.799 20.6319 133.617 21.1638C133.435 21.699 133.346 22.2758 133.346 22.8911L133.349 22.8943Z" fill="white"/>
</g>
<g id="IT LABS">
<path id="Vector_26" d="M120.918 35.7199C120.918 34.7054 121.771 34 123.01 34C124.202 34 124.958 34.6499 124.99 35.6962H123.96C123.936 35.1968 123.574 34.9036 122.994 34.9036C122.358 34.9036 121.948 35.2048 121.948 35.6882C121.948 36.1004 122.173 36.3303 122.664 36.4412L123.59 36.6394C124.596 36.8534 125.087 37.3606 125.087 38.2246C125.087 39.3025 124.234 40 122.938 40C121.682 40 120.861 39.3421 120.837 38.3038H121.867C121.876 38.7952 122.278 39.0885 122.938 39.0885C123.622 39.0885 124.057 38.7952 124.057 38.3118C124.057 37.9234 123.856 37.6935 123.373 37.5905L122.439 37.3844C121.441 37.1704 120.918 36.6077 120.918 35.7199Z" fill="white"/>
<path id="Vector_27" d="M115.046 39.8969V34.103H117.389C118.548 34.103 119.256 34.6975 119.256 35.6645C119.256 36.3065 118.966 36.7662 118.411 36.996C119.03 37.1942 119.344 37.6539 119.344 38.3276C119.344 39.3183 118.644 39.8969 117.429 39.8969H115.046ZM117.3 34.9987H116.077V36.5759H117.324C117.888 36.5759 118.201 36.2827 118.201 35.7675C118.201 35.2682 117.88 34.9987 117.3 34.9987ZM117.389 37.432H116.077V39.0013H117.389C117.968 39.0013 118.29 38.7239 118.29 38.2008C118.29 37.7094 117.96 37.432 117.389 37.432Z" fill="white"/>
<path id="Vector_28" d="M109.11 39.8969H108.039L110.164 34.103H111.219L113.344 39.8969H112.257L111.782 38.5575H109.585L109.11 39.8969ZM110.559 35.8309L109.891 37.7014H111.484L110.808 35.8309C110.76 35.6803 110.704 35.5059 110.687 35.387C110.663 35.498 110.615 35.6724 110.559 35.8309Z" fill="white"/>
<path id="Vector_29" d="M104.179 34.103V38.9617H106.641V39.8969H103.148V34.103H104.179Z" fill="white"/>
<path id="Vector_30" d="M93.7856 35.0383V34.103H98.2606V35.0383H96.5382V39.8969H95.508V35.0383H93.7856Z" fill="white"/>
<path id="Vector_31" d="M92.0302 34.103V39.8969H91V34.103H92.0302Z" fill="white"/>
</g>
</g>
</g>
</svg>
