<svg width="24" height="24" viewBox="0 0 24 24" fill="none" xmlns="http://www.w3.org/2000/svg">
<path d="M19.875 7.625H4.125C3.4875 7.625 3 7.19167 3 6.625C3 6.05833 3.4875 5.625 4.125 5.625H19.875C20.5125 5.625 21 6.05833 21 6.625C21 7.19167 20.5125 7.625 19.875 7.625Z" fill="#585E7A"/>
<path d="M19.875 12.875H4.125C3.4875 12.875 3 12.4417 3 11.875C3 11.3083 3.4875 10.875 4.125 10.875H19.875C20.5125 10.875 21 11.3083 21 11.875C21 12.4417 20.5125 12.875 19.875 12.875Z" fill="#585E7A"/>
<path d="M19.875 18.125H4.125C3.4875 18.125 3 17.6917 3 17.125C3 16.5583 3.4875 16.125 4.125 16.125H19.875C20.5125 16.125 21 16.5583 21 17.125C21 17.6917 20.5125 18.125 19.875 18.125Z" fill="#585E7A"/>
</svg>
