<svg width="56" height="56" viewBox="0 0 56 56" fill="none" xmlns="http://www.w3.org/2000/svg">
<g clip-path="url(#clip0_256_358)">
<path fill-rule="evenodd" clip-rule="evenodd" d="M40.4375 35.1138C40.2688 34.5987 39.7938 34.25 39.25 34.25C38.7062 34.25 38.2312 34.5987 38.0625 35.1138L36.875 38.7531L33.2375 39.9362C32.725 40.1037 32.375 40.5838 32.375 41.125C32.375 41.6662 32.725 42.1463 33.2375 42.3138L36.875 43.4969L38.0625 47.1362C38.2312 47.6512 38.7062 48 39.25 48C39.7938 48 40.2688 47.6512 40.4375 47.1362L41.625 43.4969L45.2625 42.3138C45.775 42.1463 46.125 41.6662 46.125 41.125C46.125 40.5838 45.775 40.1037 45.2625 39.9362L41.625 38.7531L40.4375 35.1138ZM8 31.1244C8 32.0375 8.58747 32.8494 9.45622 33.1319L18.6375 36.1156L21.6188 45.2925C21.9 46.1613 22.7125 46.75 23.625 46.75C24.5375 46.75 25.35 46.1619 25.6312 45.2925L28.6187 36.1156L37.7938 33.1319C38.6625 32.8494 39.25 32.0381 39.25 31.125C39.25 30.2113 38.6625 29.4006 37.7938 29.1181L28.6187 26.1344L25.6312 16.9575C25.35 16.0881 24.5375 15.5 23.625 15.5C22.7125 15.5 21.9 16.0888 21.6188 16.9575L18.6375 26.1344L9.45622 29.1181C8.58747 29.4006 8 30.2106 8 31.1244ZM23.625 18.87L26.4375 27.5125C26.5562 27.8931 26.8563 28.1913 27.2375 28.315L35.8812 31.125L27.2375 33.935C26.8563 34.0587 26.5562 34.3569 26.4375 34.7375L23.625 43.38L20.8125 34.7375C20.6938 34.3569 20.3937 34.0587 20.0125 33.935L11.3688 31.125L20.0125 28.315C20.3937 28.1913 20.6938 27.8931 20.8125 27.5125L23.625 18.87ZM39.25 39.5425L39.4438 40.1312C39.5625 40.5119 39.8625 40.81 40.2437 40.9338L40.8313 41.125L40.2437 41.3162C39.8625 41.44 39.5625 41.7381 39.4438 42.1188L39.25 42.7075L39.0562 42.1188C38.9375 41.7381 38.6375 41.44 38.2563 41.3162L37.6687 41.125L38.2563 40.9338C38.6375 40.81 38.9375 40.5119 39.0562 40.1312L39.25 39.5425ZM39.8125 8.86375C39.6438 8.34875 39.1688 8 38.625 8C38.0812 8 37.6062 8.34875 37.4375 8.86375L35.6375 14.3894L30.1125 16.1862C29.6 16.3537 29.25 16.8337 29.25 17.375C29.25 17.9163 29.6 18.3963 30.1125 18.5638L35.6375 20.3606L37.4375 25.8862C37.6062 26.4013 38.0812 26.75 38.625 26.75C39.1688 26.75 39.6438 26.4013 39.8125 25.8862L41.6125 20.3606L47.1375 18.5638C47.65 18.3963 48 17.9163 48 17.375C48 16.8337 47.65 16.3537 47.1375 16.1862L41.6125 14.3894L39.8125 8.86375ZM38.625 13.2925L39.4313 15.7681C39.5563 16.1481 39.85 16.4462 40.2312 16.57L42.7063 17.375L40.2312 18.18C39.85 18.3038 39.5563 18.6019 39.4313 18.9819L38.625 21.4575L37.8187 18.9819C37.6937 18.6019 37.4 18.3038 37.0188 18.18L34.5437 17.375L37.0188 16.57C37.4 16.4462 37.6937 16.1481 37.8187 15.7681L38.625 13.2925ZM13 16.125H11.75C11.0625 16.125 10.5 16.685 10.5 17.375C10.5 18.065 11.0625 18.625 11.75 18.625H13V19.875C13 20.565 13.5625 21.125 14.25 21.125C14.9375 21.125 15.5 20.565 15.5 19.875V18.625H16.75C17.4375 18.625 18 18.065 18 17.375C18 16.685 17.4375 16.125 16.75 16.125H15.5V14.875C15.5 14.185 14.9375 13.625 14.25 13.625C13.5625 13.625 13 14.185 13 14.875V16.125Z" fill="#006EFD"/>
</g>
<defs>
<clipPath id="clip0_256_358">
<rect width="40" height="40" fill="white" transform="translate(8 8)"/>
</clipPath>
</defs>
</svg>
