<svg width="56" height="56" viewBox="0 0 56 56" fill="none" xmlns="http://www.w3.org/2000/svg">
<g clip-path="url(#clip0_1_188)">
<path fill-rule="evenodd" clip-rule="evenodd" d="M34.25 11.125H31.75V9.25C31.75 8.56 31.1875 8 30.5 8C29.8125 8 29.25 8.56 29.25 9.25V11.125H26.75V9.25C26.75 8.56 26.1875 8 25.5 8C24.8125 8 24.25 8.56 24.25 9.25V11.125H21.75V9.25C21.75 8.56 21.1875 8 20.5 8C19.8125 8 19.25 8.56 19.25 9.25V11.125H17.375C15.7188 11.125 14.125 11.7837 12.9563 12.9556C11.7813 14.1275 11.125 15.7175 11.125 17.375V19.25H9.25C8.5625 19.25 8 19.81 8 20.5C8 21.19 8.5625 21.75 9.25 21.75H11.125V24.25H9.25C8.5625 24.25 8 24.81 8 25.5C8 26.19 8.5625 26.75 9.25 26.75H11.125V29.25H9.25C8.5625 29.25 8 29.81 8 30.5C8 31.19 8.5625 31.75 9.25 31.75H11.125V34.25H9.25C8.5625 34.25 8 34.81 8 35.5C8 36.19 8.5625 36.75 9.25 36.75H11.125V38.625C11.125 40.2825 11.7813 41.8725 12.9563 43.0444C14.125 44.2163 15.7188 44.875 17.375 44.875H19.25V46.75C19.25 47.44 19.8125 48 20.5 48C21.1875 48 21.75 47.44 21.75 46.75V44.875H24.25V46.75C24.25 47.44 24.8125 48 25.5 48C26.1875 48 26.75 47.44 26.75 46.75V44.875H29.25V46.75C29.25 47.44 29.8125 48 30.5 48C31.1875 48 31.75 47.44 31.75 46.75V44.875H34.25V46.75C34.25 47.44 34.8125 48 35.5 48C36.1875 48 36.75 47.44 36.75 46.75V44.875H38.625C40.2812 44.875 41.875 44.2163 43.0437 43.0444C44.2187 41.8725 44.875 40.2825 44.875 38.625V36.75H46.75C47.4375 36.75 48 36.19 48 35.5C48 34.81 47.4375 34.25 46.75 34.25H44.875V31.75H46.75C47.4375 31.75 48 31.19 48 30.5C48 29.81 47.4375 29.25 46.75 29.25H44.875V26.75H46.75C47.4375 26.75 48 26.19 48 25.5C48 24.81 47.4375 24.25 46.75 24.25H44.875V21.75H46.75C47.4375 21.75 48 21.19 48 20.5C48 19.81 47.4375 19.25 46.75 19.25H44.875V17.375C44.875 15.7175 44.2187 14.1275 43.0437 12.9556C41.875 11.7837 40.2812 11.125 38.625 11.125H36.75V9.25C36.75 8.56 36.1875 8 35.5 8C34.8125 8 34.25 8.56 34.25 9.25V11.125ZM42.375 17.375V38.625C42.375 39.6194 41.9812 40.5731 41.275 41.2769C40.575 41.98 39.6187 42.375 38.625 42.375H17.375C16.3813 42.375 15.425 41.98 14.725 41.2769C14.0188 40.5731 13.625 39.6194 13.625 38.625V17.375C13.625 16.3806 14.0188 15.4269 14.725 14.7231C15.425 14.02 16.3813 13.625 17.375 13.625H38.625C39.6187 13.625 40.575 14.02 41.275 14.7231C41.9812 15.4269 42.375 16.3806 42.375 17.375ZM41.125 17.375C41.125 16.7119 40.8625 16.0762 40.3937 15.6075C39.925 15.1381 39.2875 14.875 38.625 14.875C34.5187 14.875 21.4812 14.875 17.375 14.875C16.7125 14.875 16.075 15.1381 15.6063 15.6075C15.1375 16.0762 14.875 16.7119 14.875 17.375V38.625C14.875 39.2881 15.1375 39.9238 15.6063 40.3925C16.075 40.8619 16.7125 41.125 17.375 41.125H38.625C39.2875 41.125 39.925 40.8619 40.3937 40.3925C40.8625 39.9238 41.125 39.2881 41.125 38.625V17.375ZM38.625 17.375V38.625H17.375V17.375H38.625ZM23.625 30.5H27.375V33.625C27.375 34.315 27.9375 34.875 28.625 34.875C29.3125 34.875 29.875 34.315 29.875 33.625V24.25C29.875 21.8337 27.9188 19.875 25.5 19.875C23.0813 19.875 21.125 21.8337 21.125 24.25V33.625C21.125 34.315 21.6875 34.875 22.375 34.875C23.0625 34.875 23.625 34.315 23.625 33.625V30.5ZM32.375 21.125V33.625C32.375 34.315 32.9375 34.875 33.625 34.875C34.3125 34.875 34.875 34.315 34.875 33.625V21.125C34.875 20.435 34.3125 19.875 33.625 19.875C32.9375 19.875 32.375 20.435 32.375 21.125ZM27.375 28V24.25C27.375 23.2144 26.5375 22.375 25.5 22.375C24.4625 22.375 23.625 23.2144 23.625 24.25V28H27.375Z" fill="#006EFD"/>
</g>
<defs>
<clipPath id="clip0_1_188">
<rect width="40" height="40" fill="white" transform="translate(8 8)"/>
</clipPath>
</defs>
</svg>
