<svg width="56" height="56" viewBox="0 0 56 56" fill="none" xmlns="http://www.w3.org/2000/svg">
<path fill-rule="evenodd" clip-rule="evenodd" d="M33.625 8H18.625C15.175 8 12.375 10.7981 12.375 14.25V41.75C12.375 45.2019 15.175 48 18.625 48H33.625C35.2812 48 36.875 47.3413 38.0437 46.1694C39.2187 44.9975 39.875 43.4075 39.875 41.75C39.875 35.1206 39.875 24.25 39.875 24.25C39.875 23.56 39.3125 23 38.625 23C37.9375 23 37.375 23.56 37.375 24.25V41.75C37.375 42.7444 36.9812 43.6981 36.275 44.4019C35.575 45.105 34.6187 45.5 33.625 45.5C29.2687 45.5 22.9812 45.5 18.625 45.5C16.5563 45.5 14.875 43.8213 14.875 41.75V14.25C14.875 12.1788 16.5563 10.5 18.625 10.5H33.625C34.3125 10.5 34.875 9.94 34.875 9.25C34.875 8.56 34.3125 8 33.625 8ZM18.625 39.25H33.625C34.3125 39.25 34.875 38.69 34.875 38C34.875 37.31 34.3125 36.75 33.625 36.75H18.625C17.9375 36.75 17.375 37.31 17.375 38C17.375 38.69 17.9375 39.25 18.625 39.25ZM18.625 34.25H33.625C34.3125 34.25 34.875 33.69 34.875 33C34.875 32.31 34.3125 31.75 33.625 31.75H18.625C17.9375 31.75 17.375 32.31 17.375 33C17.375 33.69 17.9375 34.25 18.625 34.25ZM18.625 29.25H28C28.6875 29.25 29.25 28.69 29.25 28C29.25 27.31 28.6875 26.75 28 26.75H18.625C17.9375 26.75 17.375 27.31 17.375 28C17.375 28.69 17.9375 29.25 18.625 29.25ZM32.9375 13.2387C32.7688 12.7237 32.2938 12.375 31.75 12.375C31.2062 12.375 30.7312 12.7237 30.5625 13.2387L29.0687 17.8212L24.4875 19.3112C23.975 19.4787 23.625 19.9587 23.625 20.5C23.625 21.0413 23.975 21.5213 24.4875 21.6888L29.0687 23.1788L30.5625 27.7613C30.7312 28.2763 31.2062 28.625 31.75 28.625C32.2938 28.625 32.7688 28.2763 32.9375 27.7613L34.4313 23.1788L39.0125 21.6888C39.525 21.5213 39.875 21.0413 39.875 20.5C39.875 19.9587 39.525 19.4787 39.0125 19.3112L34.4313 17.8212L32.9375 13.2387ZM18.625 24.25H22.375C23.0625 24.25 23.625 23.69 23.625 23C23.625 22.31 23.0625 21.75 22.375 21.75H18.625C17.9375 21.75 17.375 22.31 17.375 23C17.375 23.69 17.9375 24.25 18.625 24.25ZM31.75 17.6675L32.25 19.1994C32.375 19.58 32.6687 19.8781 33.05 20.0019L34.5813 20.5L33.05 20.9981C32.6687 21.1219 32.375 21.42 32.25 21.8006L31.75 23.3325L31.25 21.8006C31.1312 21.42 30.8313 21.1219 30.45 20.9981L28.9187 20.5L30.45 20.0019C30.8313 19.8781 31.1312 19.58 31.25 19.1994L31.75 17.6675ZM18.625 19.25H22.375C23.0625 19.25 23.625 18.69 23.625 18C23.625 17.31 23.0625 16.75 22.375 16.75H18.625C17.9375 16.75 17.375 17.31 17.375 18C17.375 18.69 17.9375 19.25 18.625 19.25ZM40.4375 8.86374C40.2688 8.34874 39.7938 8 39.25 8C38.7062 8 38.2312 8.34874 38.0625 8.86374L37.4937 10.6163L35.7375 11.1862C35.225 11.3537 34.875 11.8338 34.875 12.375C34.875 12.9163 35.225 13.3963 35.7375 13.5638L37.4937 14.1337L38.0625 15.8863C38.2312 16.4013 38.7062 16.75 39.25 16.75C39.7938 16.75 40.2688 16.4013 40.4375 15.8863L41.0063 14.1337L42.7625 13.5638C43.275 13.3963 43.625 12.9163 43.625 12.375C43.625 11.8338 43.275 11.3537 42.7625 11.1862L41.0063 10.6163L40.4375 8.86374Z" fill="#006EFD"/>
</svg>
