<svg width="56" height="56" viewBox="0 0 56 56" fill="none" xmlns="http://www.w3.org/2000/svg">
<g clip-path="url(#clip0_256_367)">
<path fill-rule="evenodd" clip-rule="evenodd" d="M38.5187 9.46438L11.4937 36.4912C11.3562 36.6281 11.25 36.7956 11.1875 36.98L8.06246 46.355C7.91246 46.8037 8.0312 47.2994 8.3687 47.6338C8.69995 47.9688 9.19373 48.0856 9.64373 47.9356L19.0187 44.8106C19.2062 44.7494 19.3687 44.6463 19.5062 44.5088L46.5375 17.4825C47.475 16.5444 48 15.2725 48 13.9469C48 12.6206 47.475 11.3487 46.5375 10.4112C46.2187 10.0975 45.9 9.77813 45.5875 9.46438C44.65 8.52688 43.3812 8 42.0562 8C40.725 8 39.4562 8.52688 38.5187 9.46438ZM34.8125 35.1138C34.6437 34.5987 34.1687 34.25 33.625 34.25C33.0812 34.25 32.6062 34.5987 32.4375 35.1138L31.2499 38.7531L27.6125 39.9362C27.1 40.1037 26.75 40.5838 26.75 41.125C26.75 41.6662 27.1 42.1463 27.6125 42.3138L31.2499 43.4969L32.4375 47.1362C32.6062 47.6512 33.0812 48 33.625 48C34.1687 48 34.6437 47.6512 34.8125 47.1362L36 43.4969L39.6375 42.3138C40.15 42.1463 40.5 41.6662 40.5 41.125C40.5 40.5838 40.15 40.1037 39.6375 39.9362L36 38.7531L34.8125 35.1138ZM11.225 44.7738L16.3125 43.0788L12.9187 39.6887L11.225 44.7738ZM33.625 39.5425L33.8188 40.1312C33.9375 40.5119 34.2375 40.81 34.6187 40.9338L35.2062 41.125L34.6187 41.3162C34.2375 41.44 33.9375 41.7381 33.8188 42.1188L33.625 42.7075L33.4312 42.1188C33.3124 41.7381 33.0125 41.44 32.6312 41.3162L32.0437 41.125L32.6312 40.9338C33.0125 40.81 33.3124 40.5119 33.4312 40.1312L33.625 39.5425ZM14.1437 37.375L18.625 41.8575L40.6063 19.875L36.125 15.3925L14.1437 37.375ZM39.875 32.375H38.625C37.9375 32.375 37.375 32.935 37.375 33.625C37.375 34.315 37.9375 34.875 38.625 34.875H39.875V36.125C39.875 36.815 40.4375 37.375 41.125 37.375C41.8125 37.375 42.375 36.815 42.375 36.125V34.875H43.625C44.3125 34.875 44.875 34.315 44.875 33.625C44.875 32.935 44.3125 32.375 43.625 32.375H42.375V31.125C42.375 30.435 41.8125 29.875 41.125 29.875C40.4375 29.875 39.875 30.435 39.875 31.125V32.375ZM18.5625 8.86375C18.3937 8.34875 17.9187 8 17.375 8C16.8312 8 16.3562 8.34875 16.1875 8.86375L14.3875 14.3894L8.86248 16.1862C8.34998 16.3537 7.99997 16.8337 7.99997 17.375C7.99997 17.9163 8.34998 18.3963 8.86248 18.5638L14.3875 20.3606L16.1875 25.8862C16.3562 26.4013 16.8312 26.75 17.375 26.75C17.9187 26.75 18.3937 26.4013 18.5625 25.8862L20.3625 20.3606L25.8875 18.5638C26.4 18.3963 26.75 17.9163 26.75 17.375C26.75 16.8337 26.4 16.3537 25.8875 16.1862L20.3625 14.3894L18.5625 8.86375ZM17.375 13.2925L18.1812 15.7681C18.3062 16.1481 18.5999 16.4462 18.9812 16.57L21.4562 17.375L18.9812 18.18C18.5999 18.3038 18.3062 18.6019 18.1812 18.9819L17.375 21.4575L16.5687 18.9819C16.4437 18.6019 16.15 18.3038 15.7688 18.18L13.2937 17.375L15.7688 16.57C16.15 16.4462 16.4437 16.1481 16.5687 15.7681L17.375 13.2925ZM42.375 18.1075L37.8937 13.625L40.2875 11.2325C40.7562 10.7631 41.3875 10.5 42.0562 10.5C42.7187 10.5 43.35 10.7631 43.8188 11.2325C44.1375 11.5456 44.4562 11.8656 44.7687 12.1788C45.2374 12.6475 45.5 13.2837 45.5 13.9469C45.5 14.61 45.2374 15.2456 44.7687 15.7144L42.375 18.1075Z" fill="#006EFD"/>
</g>
<defs>
<clipPath id="clip0_256_367">
<rect width="40" height="40" fill="white" transform="translate(8 8)"/>
</clipPath>
</defs>
</svg>
