<svg width="56" height="56" viewBox="0 0 56 56" fill="none" xmlns="http://www.w3.org/2000/svg">
<g clip-path="url(#clip0_256_394)">
<path fill-rule="evenodd" clip-rule="evenodd" d="M19.25 11.125H17.375C15.7188 11.125 14.125 11.7838 12.9563 12.9556C11.7813 14.1275 11.125 15.7175 11.125 17.375V19.25H9.25C8.5625 19.25 8 19.81 8 20.5C8 21.19 8.5625 21.75 9.25 21.75H11.125V24.25H9.25C8.5625 24.25 8 24.81 8 25.5C8 26.19 8.5625 26.75 9.25 26.75H11.125V29.25H9.25C8.5625 29.25 8 29.81 8 30.5C8 31.19 8.5625 31.75 9.25 31.75H11.125V34.25H9.25C8.5625 34.25 8 34.81 8 35.5C8 36.19 8.5625 36.75 9.25 36.75H11.125V38.625C11.125 40.2825 11.7813 41.8725 12.9563 43.0444C14.125 44.2163 15.7188 44.875 17.375 44.875H19.25V46.75C19.25 47.44 19.8125 48 20.5 48C21.1875 48 21.75 47.44 21.75 46.75V44.875H24.25V46.75C24.25 47.44 24.8125 48 25.5 48C26.1875 48 26.75 47.44 26.75 46.75V44.875H29.25V46.75C29.25 47.44 29.8125 48 30.5 48C31.1875 48 31.75 47.44 31.75 46.75V44.875H34.25V46.75C34.25 47.44 34.8125 48 35.5 48C36.1875 48 36.75 47.44 36.75 46.75V44.875H38.625C40.2812 44.875 41.875 44.2163 43.0437 43.0444C44.2187 41.8725 44.875 40.2825 44.875 38.625V36.75H46.75C47.4375 36.75 48 36.19 48 35.5C48 34.81 47.4375 34.25 46.75 34.25H44.875V31.75H46.75C47.4375 31.75 48 31.19 48 30.5C48 29.81 47.4375 29.25 46.75 29.25H44.875V26.75H46.75C47.4375 26.75 48 26.19 48 25.5C48 24.81 47.4375 24.25 46.75 24.25H44.875V21.75H46.75C47.4375 21.75 48 21.19 48 20.5C48 19.81 47.4375 19.25 46.75 19.25H44.875V17.375C44.875 15.7175 44.2187 14.1275 43.0437 12.9556C41.875 11.7838 40.2812 11.125 38.625 11.125H36.75V9.25C36.75 8.56 36.1875 8 35.5 8C34.8125 8 34.25 8.56 34.25 9.25V11.125H31.75V9.25C31.75 8.56 31.1875 8 30.5 8C29.8125 8 29.25 8.56 29.25 9.25V11.125H26.75V9.25C26.75 8.56 26.1875 8 25.5 8C24.8125 8 24.25 8.56 24.25 9.25V11.125H21.75V9.25C21.75 8.56 21.1875 8 20.5 8C19.8125 8 19.25 8.56 19.25 9.25V11.125ZM42.375 17.375V38.625C42.375 39.6194 41.9812 40.5731 41.275 41.2769C40.575 41.98 39.6187 42.375 38.625 42.375H17.375C16.3813 42.375 15.425 41.98 14.725 41.2769C14.0188 40.5731 13.625 39.6194 13.625 38.625V17.375C13.625 16.3806 14.0188 15.4269 14.725 14.7231C15.425 14.02 16.3813 13.625 17.375 13.625H38.625C39.6187 13.625 40.575 14.02 41.275 14.7231C41.9812 15.4269 42.375 16.3806 42.375 17.375ZM31.3562 16.8963C31.1312 15.8244 30.2375 15.0237 29.1437 14.92C29.1375 14.9194 29.1313 14.9188 29.125 14.9188C28.375 14.8588 27.6187 14.8588 26.8687 14.9238C26.8625 14.9244 26.8625 14.9244 26.8563 14.925C25.7688 15.0281 24.875 15.8275 24.65 16.8969C24.5813 17.2194 24.5 17.5906 24.4375 17.9044C24.075 18.0312 23.725 18.1763 23.3812 18.34L22.5187 17.7762C21.6062 17.1769 20.4062 17.2444 19.5625 17.9425C19.5562 17.9462 19.55 17.95 19.5437 17.9544C18.975 18.4438 18.4375 18.9781 17.95 19.5556C17.95 19.5581 17.95 19.5606 17.9438 19.5631C17.25 20.4056 17.1813 21.6031 17.7813 22.5181C17.9563 22.795 18.1625 23.1138 18.3375 23.3831C18.175 23.725 18.0312 24.0756 17.9062 24.4338L16.8937 24.645C15.825 24.8694 15.025 25.7656 14.9187 26.8563V26.875C14.8562 27.6269 14.8562 28.3825 14.925 29.1337V29.1431C15.0312 30.2319 15.825 31.1262 16.9 31.3506C17.2187 31.42 17.5937 31.4994 17.9062 31.5656C18.0312 31.9231 18.175 32.2744 18.3375 32.6162L17.775 33.4794C17.175 34.3956 17.2438 35.5956 17.9438 36.44C17.9438 36.445 17.95 36.45 17.9563 36.4544C18.4438 37.0281 18.9812 37.5625 19.5562 38.0475C19.5562 38.05 19.5625 38.0519 19.5625 38.0537C20.4062 38.7506 21.6062 38.8181 22.5187 38.22C22.7937 38.0412 23.1125 37.835 23.3812 37.66C23.725 37.8231 24.075 37.9688 24.4313 38.095L24.6438 39.1037C24.8688 40.1756 25.7625 40.9763 26.8563 41.08C26.8625 41.0806 26.8687 41.0812 26.875 41.0812C27.625 41.1412 28.3813 41.1412 29.1313 41.0762C29.1375 41.0756 29.1375 41.0756 29.1437 41.075C30.2312 40.9719 31.125 40.1725 31.35 39.1031C31.4187 38.7806 31.5 38.4094 31.5625 38.0956C31.925 37.9688 32.275 37.8237 32.6188 37.66L33.4813 38.2238C34.3938 38.8231 35.5938 38.7556 36.4375 38.0575C36.4438 38.0538 36.45 38.05 36.4563 38.0456C37.025 37.5562 37.5625 37.0219 38.05 36.4444C38.05 36.4419 38.05 36.4394 38.0562 36.4369C38.75 35.5944 38.8187 34.3969 38.2187 33.4819C38.0437 33.205 37.8375 32.8862 37.6625 32.6169C37.825 32.275 37.9688 31.9244 38.0938 31.5662L39.1063 31.355C40.175 31.1306 40.975 30.2344 41.0813 29.1437C41.0813 29.1375 41.0813 29.1312 41.0813 29.125C41.1438 28.3731 41.1438 27.6175 41.075 26.8663C41.075 26.8631 41.075 26.86 41.075 26.8569C40.975 25.7681 40.175 24.8738 39.1063 24.6494C38.7813 24.58 38.4063 24.5006 38.0938 24.4344C37.9688 24.0769 37.825 23.7256 37.6625 23.3838L38.225 22.5206C38.825 21.6044 38.7562 20.4044 38.0562 19.56C38.0562 19.555 38.05 19.55 38.0437 19.5456C37.5562 18.9719 37.0188 18.4375 36.4438 17.9525C36.4438 17.95 36.4375 17.9481 36.4375 17.9463C35.5938 17.2494 34.4 17.1819 33.4813 17.78C33.2063 17.9588 32.8875 18.165 32.6188 18.34C32.275 18.1769 31.925 18.0312 31.5687 17.905L31.3562 16.8963ZM28.9062 17.4094L29.2688 19.135C29.3688 19.5938 29.7125 19.96 30.1625 20.0838C30.8312 20.2656 31.4688 20.5306 32.0688 20.8725C32.475 21.105 32.9812 21.09 33.3687 20.8331C33.3687 20.8331 34.2 20.2925 34.8437 19.8769V19.8744C35.3062 20.2644 35.7375 20.6931 36.1313 21.1531L35.1687 22.6294C34.9125 23.0219 34.8938 23.525 35.125 23.9325C35.4688 24.5313 35.7375 25.1712 35.9188 25.8362C36.0375 26.2887 36.4063 26.6337 36.8625 26.73C36.8625 26.73 37.8313 26.9331 38.5813 27.095L38.5875 27.0956C38.6375 27.6981 38.6375 28.3044 38.5875 28.9081L36.8625 29.27C36.4063 29.3663 36.0375 29.7113 35.9188 30.1638C35.7375 30.8288 35.4688 31.4687 35.125 32.0675C34.8938 32.475 34.9125 32.9781 35.1687 33.3706C35.1687 33.3706 35.7062 34.1988 36.125 34.8431V34.8463C35.7375 35.3088 35.3062 35.7375 34.8437 36.1313L33.3687 35.1669C32.9812 34.91 32.475 34.895 32.0688 35.1275C31.4688 35.4694 30.8312 35.7344 30.1625 35.9162C29.7125 36.04 29.3688 36.4062 29.2688 36.865C29.2688 36.865 29.0687 37.8331 28.9062 38.5825V38.5869C28.3 38.6381 27.6938 38.6381 27.0938 38.5906L26.7312 36.865C26.6312 36.4062 26.2875 36.04 25.8375 35.9162C25.1688 35.7344 24.5312 35.4694 23.9312 35.1275C23.525 34.895 23.025 34.91 22.6313 35.1669C22.6313 35.1669 21.8 35.7075 21.1563 36.1231V36.1256C20.6938 35.7356 20.2625 35.3069 19.8687 34.8469L20.8313 33.3706C21.0875 32.9781 21.1062 32.475 20.875 32.0675C20.5312 31.4687 20.2625 30.8288 20.0812 30.1638C19.9625 29.7113 19.5937 29.3663 19.1375 29.27C19.1375 29.27 18.1687 29.0669 17.4187 28.905L17.4125 28.9044C17.3625 28.3019 17.3625 27.6956 17.4125 27.0919L19.1375 26.73C19.5937 26.6337 19.9625 26.2887 20.0812 25.8362C20.2625 25.1712 20.5312 24.5313 20.875 23.9325C21.1062 23.525 21.0875 23.0219 20.8313 22.6294C20.8313 22.6294 20.2937 21.8012 19.875 21.1569V21.1537C20.2625 20.6912 20.6938 20.2625 21.1563 19.8687L22.6313 20.8331C23.025 21.09 23.525 21.105 23.9312 20.8725C24.5312 20.5306 25.1688 20.2656 25.8375 20.0838C26.2875 19.96 26.6312 19.5938 26.7312 19.135C26.7312 19.135 26.9313 18.1669 27.0938 17.4175V17.4131C27.7 17.3619 28.3062 17.3619 28.9062 17.4094ZM28 22.3525C24.8813 22.3525 22.35 24.8831 22.35 28C22.35 31.1169 24.8813 33.6475 28 33.6475C31.1187 33.6475 33.65 31.1169 33.65 28C33.65 24.8831 31.1187 22.3525 28 22.3525ZM28 24.8525C29.7375 24.8525 31.15 26.2631 31.15 28C31.15 29.7369 29.7375 31.1475 28 31.1475C26.2625 31.1475 24.85 29.7369 24.85 28C24.85 26.2631 26.2625 24.8525 28 24.8525Z" fill="#006EFD"/>
</g>
<defs>
<clipPath id="clip0_256_394">
<rect width="40" height="40" fill="white" transform="translate(8 8)"/>
</clipPath>
</defs>
</svg>
