<svg width="56" height="56" viewBox="0 0 56 56" fill="none" xmlns="http://www.w3.org/2000/svg">
<g clip-path="url(#clip0_256_385)">
<path fill-rule="evenodd" clip-rule="evenodd" d="M26.75 12.6662C26.0063 12.2337 25.5 11.425 25.5 10.5C25.5 9.12 26.6187 8 28 8C29.3813 8 30.5 9.12 30.5 10.5C30.5 11.4237 30 12.2313 29.25 12.6644L29.2563 14.2575C31.2188 14.2812 33.1125 14.3613 34.9937 14.4881C34.9937 14.4888 34.9937 14.4887 35 14.4887C40.1187 14.85 44.1812 18.8025 44.7937 23.7806C45.5187 23.9794 46.1937 24.3644 46.7312 24.9062C47.5562 25.7269 48.0125 26.8394 48.0125 28C48.0125 29.1606 47.5562 30.2731 46.7312 31.0938C46.1875 31.6381 45.5125 32.0244 44.7812 32.2225C44.325 35.965 41.9125 39.1275 38.5688 40.6181C38.9188 40.8638 39.25 41.1406 39.5562 41.4463C40.9625 42.8525 41.75 44.7612 41.75 46.75C41.75 47.4406 41.1937 48 40.5 48H15.5C14.8063 48 14.25 47.4406 14.25 46.75C14.25 44.7612 15.0375 42.8525 16.4438 41.4463C16.75 41.1444 17.075 40.8706 17.4187 40.6275C14.0687 39.1325 11.6562 35.9637 11.2 32.215C10.4812 32.015 9.81878 31.6313 9.28128 31.0938C8.46253 30.2731 8 29.1606 8 28C8 26.8394 8.46253 25.7269 9.28128 24.9062C9.82503 24.365 10.4938 23.9806 11.2188 23.7812C11.825 18.8094 15.8875 14.8625 21 14.5013C22.8875 14.3638 24.7875 14.2819 26.7563 14.2575L26.75 12.6662ZM39.0938 45.5H16.9062C17.1313 44.6425 17.575 43.8512 18.2125 43.2144C19.15 42.2769 20.425 41.75 21.75 41.75H34.25C35.575 41.75 36.85 42.2769 37.7875 43.2144C38.425 43.8512 38.8687 44.6425 39.0938 45.5ZM35.3125 17.0319L34.6875 19.5344C34.2687 21.2037 32.7688 22.375 31.05 22.375C29.2875 22.375 26.7125 22.375 24.95 22.375C23.2312 22.375 21.7313 21.2037 21.3125 19.5344L20.6938 17.0437C16.6813 17.5687 13.6375 20.9937 13.6375 25.0881V25.0956C13.625 26.9988 13.625 29.0206 13.625 30.9231C13.625 35.1912 16.925 38.7319 21.1875 39.0287C23.4062 39.1737 25.6437 39.2506 28 39.25C30.3563 39.2494 32.5938 39.1725 34.8125 39.015C39.0625 38.7188 42.3625 35.1838 42.3625 30.9219C42.3625 30.9187 42.3625 30.9162 42.3625 30.9137C42.375 29.0119 42.375 26.99 42.375 25.0875C42.375 20.9869 39.325 17.5575 35.3125 17.0319ZM26.75 35.5H29.25C29.9375 35.5 30.5 34.94 30.5 34.25C30.5 33.56 29.9375 33 29.25 33H26.75C26.0625 33 25.5 33.56 25.5 34.25C25.5 34.94 26.0625 35.5 26.75 35.5ZM21.125 26.75V29.25C21.125 29.94 21.6875 30.5 22.375 30.5C23.0625 30.5 23.625 29.94 23.625 29.25V26.75C23.625 26.06 23.0625 25.5 22.375 25.5C21.6875 25.5 21.125 26.06 21.125 26.75ZM32.375 26.75V29.25C32.375 29.94 32.9375 30.5 33.625 30.5C34.3125 30.5 34.875 29.94 34.875 29.25V26.75C34.875 26.06 34.3125 25.5 33.625 25.5C32.9375 25.5 32.375 26.06 32.375 26.75ZM44.875 26.59C44.875 27.5269 44.875 28.4769 44.8687 29.4144C44.9 29.3856 44.9375 29.3562 44.9625 29.3256C45.3188 28.9744 45.5125 28.4975 45.5125 28C45.5125 27.5025 45.3188 27.0256 44.9625 26.6744C44.9375 26.645 44.9062 26.6169 44.875 26.59ZM11.1313 26.5981C11.1 26.6225 11.075 26.6481 11.05 26.6744C10.7 27.0256 10.5 27.5025 10.5 28C10.5 28.4975 10.7 28.9744 11.05 29.3256C11.075 29.3506 11.1 29.3744 11.125 29.3975C11.125 28.4688 11.125 27.5275 11.1313 26.5981ZM32.775 16.8644C31.2188 16.7894 29.6375 16.75 28 16.75C26.3625 16.75 24.7812 16.79 23.225 16.8688L23.7375 18.9281C23.875 19.4844 24.375 19.875 24.95 19.875H31.05C31.625 19.875 32.125 19.4844 32.2625 18.9281L32.775 16.8644Z" fill="#006EFD"/>
</g>
<defs>
<clipPath id="clip0_256_385">
<rect width="40" height="40" fill="white" transform="translate(8 8)"/>
</clipPath>
</defs>
</svg>
